HIERARCHY
ROOT Root
{
  OFFSET 0.0 0.0 0.0
  CHANNELS 6 Xposition Yposition Zposition Zrotation Yrotation Xrotation
  JOINT Hips
  {
    OFFSET 0.0 100.0 0.0
    CHANNELS 6 Xposition Yposition Zposition Zrotation Yrotation Xrotation
    JOINT Spine1
    {
      OFFSET 5.003913 -0.037094 -0.013727
      CHANNELS 3 Zrotation Yrotation Xrotation
      JOINT Spine2
      {
        OFFSET 7.125363 -1e-06 0.0
        CHANNELS 3 Zrotation Yrotation Xrotation
        JOINT Chest
        {
          OFFSET 7.594027 1e-06 0.0
          CHANNELS 3 Zrotation Yrotation Xrotation
          JOINT Neck1
          {
            OFFSET 26.313086 -0.460272 -0.181672
            CHANNELS 3 Zrotation Yrotation Xrotation
            JOINT Neck2
            {
              OFFSET 8.045911 0.0 0.0
              CHANNELS 3 Zrotation Yrotation Xrotation
              JOINT Head
              {
                OFFSET 6.432774 0.0 0.0
                CHANNELS 3 Zrotation Yrotation Xrotation
                JOINT HeadEnd
                {
                  OFFSET 16.169773 0.06451 0.00362
                  CHANNELS 3 Zrotation Yrotation Xrotation
                }
                JOINT Jaw
                {
                  OFFSET 0.108741 3.12938 0.002639
                  CHANNELS 3 Zrotation Yrotation Xrotation
                }
                JOINT LeftEye
                {
                  OFFSET 4.45173 8.166359 3.206392
                  CHANNELS 3 Zrotation Yrotation Xrotation
                }
                JOINT RightEye
                {
                  OFFSET 4.436895 8.135758 -3.222429
                  CHANNELS 3 Zrotation Yrotation Xrotation
                }
              }
            }
          }
          JOINT LeftShoulder
          {
            OFFSET 23.218927 5.195579 1.621656
            CHANNELS 3 Zrotation Yrotation Xrotation
            JOINT LeftArm
            {
              OFFSET 15.902118 2e-06 -2e-06
              CHANNELS 3 Zrotation Yrotation Xrotation
              JOINT LeftForeArm
              {
                OFFSET 28.739307 0.0 -1e-06
                CHANNELS 3 Zrotation Yrotation Xrotation
                JOINT LeftHand
                {
                  OFFSET 27.093981 -4e-06 0.0
                  CHANNELS 3 Zrotation Yrotation Xrotation
                  JOINT LeftHandThumb1
                  {
                    OFFSET 2.276781 3.380274 0.83384
                    CHANNELS 3 Zrotation Yrotation Xrotation
                    JOINT LeftHandThumb2
                    {
                      OFFSET 4.705309 -1e-06 -1e-06
                      CHANNELS 3 Zrotation Yrotation Xrotation
                      JOINT LeftHandThumb3
                      {
                        OFFSET 2.798515 0.0 3e-06
                        CHANNELS 3 Zrotation Yrotation Xrotation
                        JOINT LeftHandThumbEnd
                        {
                          OFFSET 3.180793 4e-06 -4e-06
                          CHANNELS 3 Zrotation Yrotation Xrotation
                        }
                      }
                    }
                  }
                  JOINT LeftHandIndex1
                  {
                    OFFSET 3.247786 2.352677 0.137192
                    CHANNELS 3 Zrotation Yrotation Xrotation
                    JOINT LeftHandIndex2
                    {
                      OFFSET 6.367095 1e-06 0.0
                      CHANNELS 3 Zrotation Yrotation Xrotation
                      JOINT LeftHandIndex3
                      {
                        OFFSET 3.662364 0.0 0.0
                        CHANNELS 3 Zrotation Yrotation Xrotation
                        JOINT LeftHandIndex4
                        {
                          OFFSET 2.329242 4e-06 -4e-06
                          CHANNELS 3 Zrotation Yrotation Xrotation
                          JOINT LeftHandIndexEnd
                          {
                            OFFSET 2.767823 1e-06 0.0
                            CHANNELS 3 Zrotation Yrotation Xrotation
                          }
                        }
                      }
                    }
                  }
                  JOINT LeftHandMiddle1
                  {
                    OFFSET 3.163612 0.945023 -0.406112
                    CHANNELS 3 Zrotation Yrotation Xrotation
                    JOINT LeftHandMiddle2
                    {
                      OFFSET 6.276789 3e-06 0.0
                      CHANNELS 3 Zrotation Yrotation Xrotation
                      JOINT LeftHandMiddle3
                      {
                        OFFSET 4.35652 -1e-06 4e-06
                        CHANNELS 3 Zrotation Yrotation Xrotation
                        JOINT LeftHandMiddle4
                        {
                          OFFSET 2.996877 0.0 8e-06
                          CHANNELS 3 Zrotation Yrotation Xrotation
                          JOINT LeftHandMiddleEnd
                          {
                            OFFSET 2.323256 3e-06 -4e-06
                            CHANNELS 3 Zrotation Yrotation Xrotation
                          }
                        }
                      }
                    }
                  }
                  JOINT LeftHandRing1
                  {
                    OFFSET 2.882606 -0.309162 0.107445
                    CHANNELS 3 Zrotation Yrotation Xrotation
                    JOINT LeftHandRing2
                    {
                      OFFSET 6.033198 0.0 4e-06
                      CHANNELS 3 Zrotation Yrotation Xrotation
                      JOINT LeftHandRing3
                      {
                        OFFSET 4.350578 3e-06 0.0
                        CHANNELS 3 Zrotation Yrotation Xrotation
                        JOINT LeftHandRing4
                        {
                          OFFSET 2.651321 2e-06 -7e-06
                          CHANNELS 3 Zrotation Yrotation Xrotation
                          JOINT LeftHandRingEnd
                          {
                            OFFSET 1.937663 1e-06 -4e-06
                            CHANNELS 3 Zrotation Yrotation Xrotation
                          }
                        }
                      }
                    }
                  }
                  JOINT LeftHandPinky1
                  {
                    OFFSET 2.865315 -1.525436 0.575687
                    CHANNELS 3 Zrotation Yrotation Xrotation
                    JOINT LeftHandPinky2
                    {
                      OFFSET 5.54936 1e-06 -8e-06
                      CHANNELS 3 Zrotation Yrotation Xrotation
                      JOINT LeftHandPinky3
                      {
                        OFFSET 3.070974 0.0 -4e-06
                        CHANNELS 3 Zrotation Yrotation Xrotation
                        JOINT LeftHandPinky4
                        {
                          OFFSET 1.549672 1e-06 0.0
                          CHANNELS 3 Zrotation Yrotation Xrotation
                          JOINT LeftHandPinkyEnd
                          {
                            OFFSET 1.952123 0.0 0.0
                            CHANNELS 3 Zrotation Yrotation Xrotation
                          }
                        }
                      }
                    }
                  }
                }
              }
            }
          }
          JOINT RightShoulder
          {
            OFFSET 23.161716 5.296122 -1.380114
            CHANNELS 3 Zrotation Yrotation Xrotation
            JOINT RightArm
            {
              OFFSET -16.027195 -2e-06 1.1e-05
              CHANNELS 3 Zrotation Yrotation Xrotation
              JOINT RightForeArm
              {
                OFFSET -28.736639 4e-06 2e-06
                CHANNELS 3 Zrotation Yrotation Xrotation
                JOINT RightHand
                {
                  OFFSET -27.133619 6e-06 0.0
                  CHANNELS 3 Zrotation Yrotation Xrotation
                  JOINT RightHandThumb1
                  {
                    OFFSET -2.274328 -3.351035 -0.83067
                    CHANNELS 3 Zrotation Yrotation Xrotation
                    JOINT RightHandThumb2
                    {
                      OFFSET -4.703594 -3e-06 2e-06
                      CHANNELS 3 Zrotation Yrotation Xrotation
                      JOINT RightHandThumb3
                      {
                        OFFSET -2.794935 -4e-06 -3e-06
                        CHANNELS 3 Zrotation Yrotation Xrotation
                        JOINT RightHandThumbEnd
                        {
                          OFFSET -3.183852 4e-06 1e-06
                          CHANNELS 3 Zrotation Yrotation Xrotation
                        }
                      }
                    }
                  }
                  JOINT RightHandIndex1
                  {
                    OFFSET -3.253496 -2.33755 -0.127667
                    CHANNELS 3 Zrotation Yrotation Xrotation
                    JOINT RightHandIndex2
                    {
                      OFFSET -6.344434 0.0 0.0
                      CHANNELS 3 Zrotation Yrotation Xrotation
                      JOINT RightHandIndex3
                      {
                        OFFSET -3.654871 0.0 -8e-06
                        CHANNELS 3 Zrotation Yrotation Xrotation
                        JOINT RightHandIndex4
                        {
                          OFFSET -2.327586 -1e-06 0.0
                          CHANNELS 3 Zrotation Yrotation Xrotation
                          JOINT RightHandIndexEnd
                          {
                            OFFSET -2.770001 3e-06 8e-06
                            CHANNELS 3 Zrotation Yrotation Xrotation
                          }
                        }
                      }
                    }
                  }
                  JOINT RightHandMiddle1
                  {
                    OFFSET -3.168223 -0.944764 0.411762
                    CHANNELS 3 Zrotation Yrotation Xrotation
                    JOINT RightHandMiddle2
                    {
                      OFFSET -6.266691 -1e-06 -4e-06
                      CHANNELS 3 Zrotation Yrotation Xrotation
                      JOINT RightHandMiddle3
                      {
                        OFFSET -4.348901 0.0 0.0
                        CHANNELS 3 Zrotation Yrotation Xrotation
                        JOINT RightHandMiddle4
                        {
                          OFFSET -3.00024 2e-06 -4e-06
                          CHANNELS 3 Zrotation Yrotation Xrotation
                          JOINT RightHandMiddleEnd
                          {
                            OFFSET -2.321477 -4e-06 -4e-06
                            CHANNELS 3 Zrotation Yrotation Xrotation
                          }
                        }
                      }
                    }
                  }
                  JOINT RightHandRing1
                  {
                    OFFSET -2.885654 0.293261 -0.119232
                    CHANNELS 3 Zrotation Yrotation Xrotation
                    JOINT RightHandRing2
                    {
                      OFFSET -6.032835 -1e-06 -4e-06
                      CHANNELS 3 Zrotation Yrotation Xrotation
                      JOINT RightHandRing3
                      {
                        OFFSET -4.33881 0.0 -4e-06
                        CHANNELS 3 Zrotation Yrotation Xrotation
                        JOINT RightHandRing4
                        {
                          OFFSET -2.654903 -4e-06 -4e-06
                          CHANNELS 3 Zrotation Yrotation Xrotation
                          JOINT RightHandRingEnd
                          {
                            OFFSET -1.935122 0.0 4e-06
                            CHANNELS 3 Zrotation Yrotation Xrotation
                          }
                        }
                      }
                    }
                  }
                  JOINT RightHandPinky1
                  {
                    OFFSET -2.866241 1.503904 -0.60527
                    CHANNELS 3 Zrotation Yrotation Xrotation
                    JOINT RightHandPinky2
                    {
                      OFFSET -5.553177 -2e-06 0.0
                      CHANNELS 3 Zrotation Yrotation Xrotation
                      JOINT RightHandPinky3
                      {
                        OFFSET -3.062664 -1e-06 -4e-06
                        CHANNELS 3 Zrotation Yrotation Xrotation
                        JOINT RightHandPinky4
                        {
                          OFFSET -1.546529 2e-06 4e-06
                          CHANNELS 3 Zrotation Yrotation Xrotation
                          JOINT RightHandPinkyEnd
                          {
                            OFFSET -1.952341 0.0 -4e-06
                            CHANNELS 3 Zrotation Yrotation Xrotation
                          }
                        }
                      }
                    }
                  }
                }
              }
            }
          }
        }
      }
    }
    JOINT LeftLeg
    {
      OFFSET -8.443107 2.567604 10.043214
      CHANNELS 3 Zrotation Yrotation Xrotation
      JOINT LeftShin
      {
        OFFSET 43.229198 1e-06 -1e-06
        CHANNELS 3 Zrotation Yrotation Xrotation
        JOINT LeftFoot
        {
          OFFSET 42.298611 1e-06 1e-06
          CHANNELS 3 Zrotation Yrotation Xrotation
          JOINT LeftToeBase
          {
            OFFSET 14.165858 1e-06 0.0
            CHANNELS 3 Zrotation Yrotation Xrotation
            JOINT LeftToeEnd
            {
              OFFSET 6.7141 -0.234461 0.0
              CHANNELS 3 Zrotation Yrotation Xrotation
            }
          }
        }
      }
    }
    JOINT RightLeg
    {
      OFFSET -8.303923 2.592729 -10.047278
      CHANNELS 3 Zrotation Yrotation Xrotation
      JOINT RightShin
      {
        OFFSET -43.369682 0.0 1e-06
        CHANNELS 3 Zrotation Yrotation Xrotation
        JOINT RightFoot
        {
          OFFSET -42.260784 4e-06 2e-06
          CHANNELS 3 Zrotation Yrotation Xrotation
          JOINT RightToeBase
          {
            OFFSET -14.222245 -2e-06 -1e-06
            CHANNELS 3 Zrotation Yrotation Xrotation
            JOINT RightToeEnd
            {
              OFFSET -6.660062 0.232574 -2e-06
              CHANNELS 3 Zrotation Yrotation Xrotation
            }
          }
        }
      }
    }
  }
}
MOTION
Frames: 4
Frame Time: 0.03333333333333333
0.0 0.0 0.0 0.0 -0.0 0.0 -13.410102 34.467941 -13.659295 87.159119 -56.77597 94.164413 22.327244 2.260323 1.816709 1.299143 -0.227079 0.168005 37.161171 2.601321 -0.649522 23.738241 -1.470696 0.781524 -2.805876 0.753814 -2.661391 -31.802532 -4.339652 -4.022243 4e-06 0.0 0.0 -0.230099 -0.010362 -0.008403 -0.524124 -0.102168 0.071231 -0.372292 0.052127 -0.079329 -0.41515 -61.373985 -8.675431 -3.826295 33.663891 -80.303146 19.18618 1.012138 0.886537 -24.729641 14.387193 -20.139685 17.636623 -26.322721 52.411182 -19.46666 -14.395592 29.410389 1e-06 -8.774819 -2e-06 16.238569 -17.696823 6.632522 -0.609776 -1.795654 -3.889327 -4.807086 -11.046809 -2.93785 3e-06 -20.976015 -1e-06 -5.019971 -25.033556 -4.031882 7e-06 1e-06 -0.0 -10.63453 -5.68697 -3.565587 10.573269 -17.922947 -3.1139 2e-06 -13.821208 -1e-06 -0.501778 -31.181505 -4.027016 -10.112743 -57.245346 7.021813 -13.982712 -7.150198 -2.875042 13.772727 -8.40149 -3.21824 0.347732 -34.211544 0.771653 -0.963028 -17.73337 2.621018 0.0 -1e-06 0.0 -17.346413 -20.095217 -4.20178 21.757555 -1.638372 3.866427 0.0 -6.338822 -0.0 -1.697591 -22.591747 -6.194004 0.0 -5e-06 -4e-06 -169.161087 -53.531433 -22.19536 -8.759 31.238636 -107.046585 30.914198 -2.257139 1.598736 -22.323462 10.572122 -5.046223 22.18211 -20.375889 49.933308 -16.701815 -16.74353 28.476522 -3e-06 -12.690601 -1e-06 16.536285 -19.181559 2.295228 -0.10592 -1.513855 -4.275882 -5.039041 -5.61287 -2.953556 6e-06 -11.020524 -2e-06 -6.111297 -15.89533 -3.840469 0.0 -0.0 -2e-06 -10.283369 -5.680287 -4.341837 11.028294 -11.302402 -2.372633 -1.384266 -14.238577 -6.320122 -0.625442 -26.924183 -3.827595 -5.297558 -50.004574 -3.119787 -13.708524 -7.363473 -3.720938 18.141153 -14.052738 -3.242677 4e-06 -18.78727 1e-06 -0.429712 -8.456044 2.555505 1e-06 -1e-06 -0.0 -15.923536 -20.094479 -5.473584 30.41921 -7.190824 1.735926 1e-06 -8.162925 2e-06 -1.8619 -22.861464 -6.167941 -1e-06 -5e-06 0.0 83.181931 -8.407464 26.35323 150.983963 -0.530627 0.505773 -70.215927 34.501247 7.807156 -33.954353 1.687389 1.614952 -0.999998 -0.0 -0.0 -97.055374 -13.705033 3.715757 157.997284 0.041746 -0.163699 -87.446869 13.768296 12.259325 -37.813248 1.142048 0.610835 -1.000002 0.0 0.0 
0.0 0.0 0.0 0.0 -0.0 0.0 -13.468257 34.490044 -13.670613 87.056664 -56.734917 94.275398 22.322968 2.233842 1.811177 1.278981 -0.231495 0.163231 37.256603 2.600514 -0.614607 23.900469 -1.421604 0.746685 -2.792965 0.745927 -2.658109 -31.884413 -4.269894 -3.915063 4e-06 0.0 0.0 -0.236147 -0.02297 -0.011406 -0.520548 -0.128492 0.082291 -0.36317 0.052834 -0.095569 -0.364666 -61.299591 -8.685796 -4.000553 33.701126 -80.321815 19.352644 0.909896 0.857189 -24.821054 14.421947 -19.871225 17.636627 -26.322721 52.411186 -19.466656 -14.395598 29.410381 -0.0 -8.774822 -2e-06 16.213123 -17.633932 6.646201 -0.609776 -1.795654 -3.889327 -4.807087 -11.046809 -2.937849 5e-06 -20.976011 -1e-06 -5.019969 -25.033552 -4.03188 6e-06 -1e-06 -3e-06 -10.634529 -5.68697 -3.565587 10.573271 -17.922945 -3.113902 2e-06 -13.821205 -0.0 -0.501778 -31.181498 -4.027016 -10.113358 -57.250965 7.025529 -13.982712 -7.150198 -2.875041 13.772728 -8.401489 -3.218241 0.347732 -34.211544 0.771654 -0.963029 -17.733366 2.621017 0.0 -0.0 1e-06 -17.346416 -20.095215 -4.20178 21.757559 -1.638373 3.866427 1e-06 -6.338823 0.0 -1.697591 -22.591742 -6.194004 1e-06 -5e-06 -3e-06 -169.021042 -53.57798 -22.242655 -8.86882 31.062757 -106.913506 31.11577 -2.247797 1.672982 -22.52816 10.472949 -5.07152 22.182114 -20.375893 49.933308 -16.701807 -16.743525 28.476522 -2e-06 -12.6906 -3e-06 16.586405 -19.201054 2.284097 -0.105921 -1.513856 -4.275881 -5.039042 -5.612869 -2.953556 4e-06 -11.020525 -2e-06 -6.111298 -15.895332 -3.84047 0.0 -0.0 -2e-06 -10.283369 -5.680288 -4.341838 11.02829 -11.302404 -2.372632 -1.38427 -14.23858 -6.320119 -0.625442 -26.924187 -3.827596 -5.336341 -50.046253 -3.079788 -13.708524 -7.363475 -3.720938 18.141146 -14.052739 -3.242672 3e-06 -18.78727 -0.0 -0.429712 -8.456041 2.555504 0.0 -2e-06 1e-06 -15.923536 -20.094482 -5.473579 30.419207 -7.190825 1.735929 1e-06 -8.162927 1e-06 -1.861904 -22.861467 -6.167942 -0.0 -3e-06 -0.0 83.102539 -8.449969 26.603456 150.931259 -0.499812 0.510735 -69.983612 34.73259 7.954735 -34.139931 1.690729 1.621268 -0.999999 0.0 0.0 -96.981674 -13.618985 3.381258 157.982224 0.019507 -0.197463 -87.45417 13.488056 12.157962 -37.852348 1.143088 0.619915 -1.000001 -0.0 -0.0 
0.0 0.0 0.0 0.0 -0.0 0.0 -13.534185 34.508099 -13.665709 86.982094 -56.723381 94.34507 22.269743 2.21729 1.813009 1.256512 -0.260964 0.150097 37.363762 2.5776 -0.591169 24.035421 -1.3706 0.706415 -2.779021 0.738854 -2.640144 -31.979004 -4.228439 -3.81146 6e-06 0.0 0.0 -0.241299 -0.032901 -0.013863 -0.510057 -0.14909 0.094039 -0.350188 0.054197 -0.111386 -0.366085 -61.233768 -8.674462 -4.090716 33.731712 -80.185585 19.548594 0.862561 0.81248 -24.871101 14.439464 -19.620337 17.636625 -26.322735 52.411194 -19.46666 -14.395597 29.410385 -1e-06 -8.774821 -2e-06 16.219915 -17.578745 6.605678 -0.609779 -1.795653 -3.889328 -4.807087 -11.046809 -2.93785 5e-06 -20.976011 0.0 -5.019969 -25.033548 -4.031878 6e-06 0.0 -1e-06 -10.634531 -5.686969 -3.565587 10.57327 -17.922947 -3.113899 1e-06 -13.821206 1e-06 -0.501781 -31.181501 -4.027013 -10.127891 -57.243797 6.981033 -13.982714 -7.150196 -2.875041 13.772727 -8.401492 -3.218242 0.347731 -34.211544 0.771659 -0.963028 -17.733366 2.621021 0.0 -0.0 -1e-06 -17.346416 -20.095213 -4.201781 21.757557 -1.638373 3.866428 -0.0 -6.338824 1e-06 -1.697591 -22.591742 -6.194003 0.0 -5e-06 -2e-06 -168.931549 -53.658012 -22.268757 -8.842486 30.906473 -106.8256 31.262812 -2.240096 1.70517 -22.6308 10.41867 -5.006415 22.182108 -20.375893 49.933304 -16.701809 -16.74353 28.476528 -2e-06 -12.6906 -1e-06 16.61586 -19.221087 2.278624 -0.105919 -1.513855 -4.27588 -5.039042 -5.612872 -2.953556 4e-06 -11.020525 -2e-06 -6.111298 -15.89533 -3.840467 -1e-06 0.0 -2e-06 -10.283368 -5.680286 -4.341837 11.02829 -11.302402 -2.372633 -1.384269 -14.238579 -6.32012 -0.625445 -26.924191 -3.827596 -5.389524 -50.078796 -3.071099 -13.708524 -7.363475 -3.720936 18.14115 -14.052739 -3.242674 2e-06 -18.78727 0.0 -0.429712 -8.456042 2.555503 -0.0 -1e-06 0.0 -15.923538 -20.094482 -5.473581 30.41921 -7.190823 1.735924 1e-06 -8.162925 2e-06 -1.861906 -22.861467 -6.167943 2e-06 -2e-06 -0.0 83.046677 -8.535061 26.857347 150.871628 -0.463509 0.515517 -69.853935 34.989456 7.973177 -34.248283 1.698079 1.624572 -0.999999 -0.0 -0.0 -96.923309 -13.514913 3.042554 157.952164 0.001221 -0.222019 -87.398941 13.206584 12.076883 -37.847107 1.144532 0.622028 -1.000003 0.0 0.0 
0.0 0.0 0.0 0.0 -0.0 0.0 -13.58543 34.504391 -13.658327 86.913353 -56.751892 94.40361 22.185089 2.218188 1.81832 1.238812 -0.293622 0.138091 37.463696 2.523805 -0.592912 24.138445 -1.29755 0.690044 -2.76592 0.710623 -2.588523 -32.022491 -4.214641 -3.740088 5e-06 0.0 0.0 -0.242481 -0.040642 -0.016393 -0.49363 -0.159414 0.100543 -0.33661 0.050453 -0.122278 -0.422903 -61.170013 -8.661119 -4.095312 33.772251 -79.973938 19.731028 0.842612 0.748931 -24.897215 14.440847 -19.511211 17.636627 -26.322725 52.411194 -19.466665 -14.395598 29.410393 -1e-06 -8.774822 -2e-06 16.236858 -17.544216 6.541898 -0.609777 -1.795653 -3.889328 -4.807087 -11.046809 -2.937851 8e-06 -20.976015 -1e-06 -5.019969 -25.033554 -4.031882 6e-06 -0.0 1e-06 -10.634534 -5.686969 -3.565587 10.573275 -17.922947 -3.113902 4e-06 -13.821205 -1e-06 -0.501773 -31.181498 -4.027015 -10.134769 -57.252468 6.921266 -13.982714 -7.150197 -2.875043 13.772728 -8.40149 -3.218241 0.347736 -34.211544 0.771654 -0.963028 -17.73337 2.62102 -0.0 -1e-06 -0.0 -17.346416 -20.095213 -4.201783 21.757557 -1.638375 3.866426 2e-06 -6.338822 -0.0 -1.697589 -22.591742 -6.194005 0.0 -6e-06 -3e-06 -168.843323 -53.76757 -22.325937 -8.743141 30.758177 -106.808197 31.381092 -2.263373 1.669779 -22.646141 10.439025 -4.854314 22.182114 -20.375898 49.933319 -16.701811 -16.743528 28.476532 -3e-06 -12.690598 -2e-06 16.64941 -19.234634 2.266992 -0.105919 -1.513856 -4.275882 -5.039042 -5.612869 -2.953554 4e-06 -11.020525 -2e-06 -6.111297 -15.89533 -3.840471 1e-06 -0.0 -1e-06 -10.283367 -5.680287 -4.341838 11.028292 -11.302404 -2.372635 -1.384267 -14.238579 -6.320127 -0.625438 -26.924187 -3.827601 -5.4359 -50.12125 -3.082544 -13.708523 -7.363474 -3.720939 18.141146 -14.052741 -3.242674 5e-06 -18.78727 1e-06 -0.429713 -8.456041 2.555504 -1e-06 -1e-06 0.0 -15.923532 -20.094482 -5.473585 30.41921 -7.190823 1.735927 1e-06 -8.162927 2e-06 -1.861903 -22.861469 -6.167941 1e-06 -1e-06 0.0 82.974876 -8.618873 27.040981 150.840912 -0.451478 0.511671 -69.794632 35.236084 7.890294 -34.278648 1.708227 1.609635 -0.999999 1e-06 0.0 -96.942665 -13.411809 2.797244 157.91188 -0.003693 -0.227734 -87.101181 12.997259 12.052856 -37.773293 1.143404 0.615648 -1.000002 -0.0 0.0 
